# xmcd
#
# Track frame offsets: 
#        150
#        16419
#        36388
#        52976
#        72913
#        91834
#        108706
#        125099
#        139976
#        156872
#
# Disc length: 2356 seconds
#
# Revision: 0
# Processed by: cddbd v1.5.2PL0 Copyright (c) Steve Scherf et al.
# Submitted via: ExactAudioCopy v0.95a3
#
DISCID=8d09320a
DTITLE=Stone Rider - Three Legs of Trouble
DYEAR=2008
DGENRE=Rock
TTITLE0=Rush Hour, Baby
TTITLE1=Back from the Dead
TTITLE2=Ramble Down
TTITLE3=Juice Man
TTITLE4=Wild Child
TTITLE5=Bad Lovin' (Never Felt So Good)
TTITLE6=Hair of the Dog
TTITLE7=Bite My Tongue
TTITLE8=Breakout
TTITLE9=Shut My Mouth
EXTD=
EXTT0=
EXTT1=
EXTT2=
EXTT3=
EXTT4=
EXTT5=
EXTT6=
EXTT7=
EXTT8=
EXTT9=
PLAYORDER=
